<svg xmlns="http://www.w3.org/2000/svg" width="186.486" height="60" viewBox="0 0 186.486 60">
  <g id="logo_EYS" transform="translate(-184.252 -90.156)">
    <path id="Path_3956" data-name="Path 3956" d="M213.28,117.921H187.854V107.673h21.182v-3.345H187.854V94.6h25V91.251h-28.6v30.014H213.28Z" transform="translate(0 -0.194)" fill="#fff"/>
    <path id="Path_3957" data-name="Path 3957" d="M294.057,107.5,281.451,91.251h-4.331l15.093,19.51v10.5h3.6v-10.5l15.05-19.51h-4.288Z" transform="translate(-16.498 -0.194)" fill="#fff"/>
    <path id="Path_3958" data-name="Path 3958" d="M388.731,118.627A21.682,21.682,0,0,1,373.51,113.1l-2.53,2.7a26.393,26.393,0,0,0,17.537,6.174c9.776,0,15.394-4.073,15.394-9.605,0-5.917-6.346-7.674-15.479-8.4-7.075-.558-12.735-1.329-12.735-5.059,0-3.946,6.261-5.446,11.621-5.4,5.016.043,9.432,1.544,12.348,4.417l2.83-2.4a23.074,23.074,0,0,0-15.35-5.359c-8.018,0-15.136,3.215-15.136,8.876,0,5.917,7.675,7.675,15.694,8.361,8.1.686,12.52,1.587,12.52,5.231C400.223,116.354,395.978,118.627,388.731,118.627Z" transform="translate(-33.172 0)" fill="#fff"/>
    <path id="Path_3959" data-name="Path 3959" d="M185.311,153.839h6.23v-.984h-6.23v-2.863h7.353v-.984h-8.412v8.829h8.538v-.984h-7.479Z" transform="translate(0 -10.455)" fill="#fff"/>
    <path id="Path_3960" data-name="Path 3960" d="M207.168,151.079a3.714,3.714,0,0,0-3.28,1.677v-1.425h-1.034V158.2h1.034v-4.313A3.263,3.263,0,0,1,206.967,152a2.1,2.1,0,0,1,2.321,2.4V158.2h1.034V154.32A2.932,2.932,0,0,0,207.168,151.079Z" transform="translate(-3.305 -10.823)" fill="#fff"/>
    <path id="Path_3961" data-name="Path 3961" d="M220.354,158.84a1.1,1.1,0,0,1-1.136,1.248,1.5,1.5,0,0,1-.681-.151l-.315.845a2.974,2.974,0,0,0,1.21.252,1.842,1.842,0,0,0,1.955-2.006v-7.643h-1.034Z" transform="translate(-6.035 -10.877)" fill="#fff"/>
    <path id="Path_3962" data-name="Path 3962" d="M221.285,148.5a.679.679,0,0,0-.732.656.736.736,0,0,0,1.463,0A.679.679,0,0,0,221.285,148.5Z" transform="translate(-6.449 -10.365)" fill="#fff"/>
    <path id="Path_3963" data-name="Path 3963" d="M234.527,151.063c-2.623,0-4.174,1.438-4.174,3.708s1.551,3.7,4.174,3.7,4.175-1.425,4.175-3.7S237.151,151.063,234.527,151.063Zm0,6.483c-1.791,0-3.127-.921-3.127-2.775s1.336-2.787,3.127-2.787,3.128.921,3.128,2.787S236.318,157.546,234.527,157.546Z" transform="translate(-8.19 -10.82)" fill="#fff"/>
    <path id="Path_3964" data-name="Path 3964" d="M251.5,156.733l-3.052-5.348h-1.16l3.657,6.395-1.778,3h1.122l5.36-9.4h-1.135Z" transform="translate(-11.198 -10.877)" fill="#fff"/>
    <path id="Path_3965" data-name="Path 3965" d="M344.551,152.748c-2.081-.165-3.746-.391-3.746-1.488,0-1.16,1.841-1.6,3.418-1.59a5.176,5.176,0,0,1,3.632,1.3l.832-.706a6.785,6.785,0,0,0-4.515-1.576c-2.359,0-4.452.946-4.452,2.611,0,1.74,2.257,2.257,4.616,2.46,2.383.2,3.683.466,3.683,1.538,0,1.1-1.248,1.766-3.38,1.766a6.374,6.374,0,0,1-4.477-1.627l-.744.794a7.759,7.759,0,0,0,5.158,1.817c2.876,0,4.528-1.2,4.528-2.826C349.1,153.479,347.237,152.961,344.551,152.748Z" transform="translate(-27.565 -10.398)" fill="#fff"/>
    <path id="Path_3966" data-name="Path 3966" d="M360.063,151.063c-2.623,0-4.175,1.438-4.175,3.708s1.552,3.7,4.175,3.7,4.174-1.425,4.174-3.7S362.686,151.063,360.063,151.063Zm0,6.483c-1.791,0-3.127-.92-3.127-2.775s1.336-2.787,3.127-2.787,3.128.921,3.128,2.787S361.854,157.546,360.063,157.546Z" transform="translate(-30.491 -10.82)" fill="#fff"/>
    <path id="Path_3967" data-name="Path 3967" d="M377.919,155.7a3.263,3.263,0,0,1-3.077,1.892,2.1,2.1,0,0,1-2.321-2.4v-3.809h-1.034v3.885a2.933,2.933,0,0,0,3.154,3.242,3.713,3.713,0,0,0,3.279-1.678v1.425h1.034v-6.874h-1.034Z" transform="translate(-33.262 -10.877)" fill="#fff"/>
    <path id="Path_3968" data-name="Path 3968" d="M390.983,151.079a3.714,3.714,0,0,0-3.279,1.677v-1.425h-1.035V158.2H387.7v-4.313A3.262,3.262,0,0,1,390.781,152a2.1,2.1,0,0,1,2.321,2.4V158.2h1.035V154.32A2.933,2.933,0,0,0,390.983,151.079Z" transform="translate(-35.96 -10.823)" fill="#fff"/>
    <path id="Path_3969" data-name="Path 3969" d="M408.243,152.179a3.825,3.825,0,0,0-3.317-1.576,3.689,3.689,0,1,0,0,7.378,3.825,3.825,0,0,0,3.317-1.577v1.325h1.035V148.4h-1.035Zm0,3.2a3.255,3.255,0,0,1-3.052,1.678c-1.892,0-2.951-1-2.951-2.762s1.059-2.775,2.951-2.775a3.255,3.255,0,0,1,3.052,1.678Z" transform="translate(-38.54 -10.346)" fill="#fff"/>
    <path id="Path_3970" data-name="Path 3970" d="M277.015,153.788l-3.708-4.78h-1.274l4.439,5.739v3.09h1.059v-3.09l4.427-5.739H280.7Z" transform="translate(-15.594 -10.455)" fill="#fff"/>
    <path id="Path_3971" data-name="Path 3971" d="M291.222,151.063c-2.623,0-4.174,1.438-4.174,3.708s1.551,3.7,4.174,3.7,4.175-1.425,4.175-3.7S293.846,151.063,291.222,151.063Zm0,6.483c-1.791,0-3.127-.92-3.127-2.775s1.336-2.787,3.127-2.787,3.128.921,3.128,2.787S293.013,157.546,291.222,157.546Z" transform="translate(-18.262 -10.82)" fill="#fff"/>
    <path id="Path_3972" data-name="Path 3972" d="M309.077,155.7A3.261,3.261,0,0,1,306,157.59a2.1,2.1,0,0,1-2.321-2.4v-3.809h-1.034v3.885a2.933,2.933,0,0,0,3.153,3.242,3.713,3.713,0,0,0,3.279-1.678v1.425h1.034v-6.874h-1.034Z" transform="translate(-21.033 -10.877)" fill="#fff"/>
    <path id="Path_3973" data-name="Path 3973" d="M318.862,153.046v-1.691h-1.034v6.874h1.034v-4.011a3.415,3.415,0,0,1,3.418-2.068v-.933A3.689,3.689,0,0,0,318.862,153.046Z" transform="translate(-23.73 -10.848)" fill="#fff"/>
  </g>
</svg>