<svg xmlns="http://www.w3.org/2000/svg" width="108.153" height="33.998" viewBox="0 0 108.153 33.998">
  <g id="logo_school" transform="translate(-184.252 -259.5)">
    <path id="Path_120" data-name="Path 120" d="M200.573,275.589h-14.3v-5.762h11.909v-1.881H186.277v-5.473h14.055v-1.88h-16.08v16.876h16.321Z" transform="translate(0 -0.588)"/>
    <path id="Path_121" data-name="Path 121" d="M293.683,260.593l-7.04,9.137-7.088-9.137h-2.435l8.486,10.969v5.906h2.025v-5.906l8.462-10.969Z" transform="translate(-48.279 -0.588)"/>
    <path id="Path_122" data-name="Path 122" d="M380.961,275.506A12.193,12.193,0,0,1,372.4,272.4l-1.422,1.518a14.84,14.84,0,0,0,9.86,3.471c5.5,0,8.655-2.29,8.655-5.4,0-3.327-3.568-4.315-8.7-4.725-3.978-.314-7.16-.747-7.16-2.845,0-2.218,3.52-3.062,6.534-3.037a9.881,9.881,0,0,1,6.943,2.483l1.591-1.35a12.971,12.971,0,0,0-8.631-3.013c-4.508,0-8.51,1.808-8.51,4.99,0,3.327,4.315,4.315,8.824,4.7,4.556.386,7.04.892,7.04,2.941C387.422,274.229,385.035,275.506,380.961,275.506Z" transform="translate(-97.09 0)"/>
    <path id="Path_123" data-name="Path 123" d="M187.393,322.766l-2.489-3.035h-.652v4.964h.581v-4.127l2.524,3.057h.043l2.524-3.057v4.127h.6v-4.964h-.638Z" transform="translate(0 -31.345)"/>
    <path id="Path_124" data-name="Path 124" d="M215,322.319a2.025,2.025,0,0,1-4.049,0v-2.588h-.6v2.624a2.623,2.623,0,0,0,5.24,0v-2.624H215Z" transform="translate(-14.034 -31.345)"/>
    <path id="Path_125" data-name="Path 125" d="M236.076,321.693c-1.17-.093-2.106-.22-2.106-.837,0-.652,1.036-.9,1.922-.893a2.905,2.905,0,0,1,2.042.73l.468-.4a3.814,3.814,0,0,0-2.539-.886c-1.326,0-2.5.532-2.5,1.468,0,.979,1.269,1.27,2.6,1.383s2.07.263,2.07.865-.7.993-1.9.993a3.586,3.586,0,0,1-2.517-.915l-.418.447a4.367,4.367,0,0,0,2.9,1.021c1.617,0,2.546-.674,2.546-1.588C238.636,322.1,237.587,321.813,236.076,321.693Z" transform="translate(-25.559 -31.172)"/>
    <rect id="Rectangle_243" data-name="Rectangle 243" width="0.596" height="4.964" transform="translate(218.803 288.386)"/>
    <path id="Path_126" data-name="Path 126" d="M272.936,319.962a2.128,2.128,0,0,1,1.964.951l.567-.284a2.843,2.843,0,0,0-2.524-1.219c-1.872,0-3.007,1.021-3.007,2.631s1.135,2.631,2.986,2.631a2.84,2.84,0,0,0,2.546-1.22l-.567-.284a2.108,2.108,0,0,1-1.964.951c-1.44,0-2.39-.709-2.39-2.078S271.5,319.962,272.936,319.962Z" transform="translate(-44.75 -31.172)"/>
    <path id="Path_127" data-name="Path 127" d="M316.141,321.693c-1.17-.093-2.106-.22-2.106-.837,0-.652,1.036-.9,1.922-.893a2.907,2.907,0,0,1,2.042.73l.467-.4a3.81,3.81,0,0,0-2.538-.886c-1.326,0-2.5.532-2.5,1.468,0,.979,1.27,1.27,2.6,1.383s2.07.263,2.07.865-.7.993-1.9.993a3.588,3.588,0,0,1-2.518-.915l-.418.447a4.365,4.365,0,0,0,2.9,1.021c1.617,0,2.546-.674,2.546-1.588C318.7,322.1,317.651,321.813,316.141,321.693Z" transform="translate(-67.375 -31.172)"/>
    <path id="Path_128" data-name="Path 128" d="M332.817,319.962a2.128,2.128,0,0,1,1.964.951l.567-.284a2.843,2.843,0,0,0-2.524-1.219c-1.872,0-3.007,1.021-3.007,2.631s1.135,2.631,2.985,2.631a2.841,2.841,0,0,0,2.546-1.22l-.567-.284a2.108,2.108,0,0,1-1.964.951c-1.44,0-2.39-.709-2.39-2.078S331.378,319.962,332.817,319.962Z" transform="translate(-76.024 -31.172)"/>
    <path id="Path_129" data-name="Path 129" d="M351.966,321.894h-4.084v-2.163h-.6v4.964h.6v-2.234h4.084v2.234h.6v-4.964h-.6Z" transform="translate(-85.153 -31.345)"/>
    <path id="Path_130" data-name="Path 130" d="M367.545,319.409c-1.887,0-3.021,1.014-3.021,2.631s1.134,2.631,3.021,2.631,3.021-1.014,3.021-2.631S369.431,319.409,367.545,319.409Zm0,4.709c-1.461,0-2.411-.745-2.411-2.078s.95-2.078,2.411-2.078,2.411.744,2.411,2.078S369.006,324.118,367.545,324.118Z" transform="translate(-93.619 -31.172)"/>
    <path id="Path_131" data-name="Path 131" d="M385.642,319.409c-1.886,0-3.021,1.014-3.021,2.631s1.135,2.631,3.021,2.631,3.021-1.014,3.021-2.631S387.528,319.409,385.642,319.409Zm0,4.709c-1.461,0-2.411-.745-2.411-2.078s.95-2.078,2.411-2.078,2.411.744,2.411,2.078S387.1,324.118,385.642,324.118Z" transform="translate(-103.349 -31.172)"/>
    <path id="Path_132" data-name="Path 132" d="M402.111,319.731h-.6v4.964h4.4v-.553h-3.8Z" transform="translate(-113.507 -31.345)"/>
  </g>
</svg>
