<svg xmlns="http://www.w3.org/2000/svg" width="15.63" height="20.281" viewBox="0 0 15.63 20.281">
  <path id="icon" d="M461.637,14802.283a.665.665,0,1,1,0-1.33h2.65v-1.994a.666.666,0,1,1,1.332,0v1.994a1.332,1.332,0,0,1-1.332,1.33Zm-9.307,0a1.332,1.332,0,0,1-1.332-1.33v-1.994a.666.666,0,1,1,1.332,0v1.994h2.65a.665.665,0,1,1,0,1.33Zm4.442-4.215-1.487-.992a.664.664,0,0,1,.737-1.105l1.49.992,2.278-2.848a.665.665,0,1,1,1.038.83l-2.278,2.85a1.325,1.325,0,0,1-1.778.273Zm7.524-3.1a2,2,0,0,0-1.992-1.994.665.665,0,1,1,0-1.33,3.329,3.329,0,0,1,3.324,3.324.666.666,0,1,1-1.332,0Zm-13.3,0a3.329,3.329,0,0,1,3.324-3.324.665.665,0,1,1,0,1.33,2,2,0,0,0-1.992,1.994.666.666,0,1,1-1.332,0Zm3.324-7.979a3.99,3.99,0,1,1,3.99,3.99A3.995,3.995,0,0,1,454.323,14786.99Zm1.332,0a2.658,2.658,0,1,0,2.658-2.658A2.663,2.663,0,0,0,455.655,14786.99Z" transform="translate(-450.498 -14782.502)" fill="#fff" stroke="rgba(0,0,0,0)" stroke-width="1"/>
</svg>
