<svg xmlns="http://www.w3.org/2000/svg" width="200" height="200" viewBox="0 0 200 200">
  <g id="logo" transform="translate(-860 -3492)">
    <circle id="Ellipse_185" data-name="Ellipse 185" cx="100" cy="100" r="100" transform="translate(860 3492)" fill="#333"/>
    <path id="logo-2" data-name="logo" d="M112.017,119.891l.038-2.165a5.148,5.148,0,0,0,.793.069c.923,0,1.362-.356,1.666-2.1l-3.094-14.358H114c.812,4.735,1.577,9.189,1.694,10.9h.064c.259-2.32.965-5.773,1.819-10.9H120l-3.093,14.519c-.846,3.924-2.171,4.142-3.72,4.142A7.356,7.356,0,0,1,112.017,119.891Zm-79.591-9.3v-9.095c0-2.815,1.248-4.548,3.907-4.548,3.218,0,3.818,2.193,3.818,4.626v.762H37.726v-1.01c0-1.291-.256-2.184-1.41-2.184-1.116,0-1.437.829-1.437,2.208v9.427c0,1.437.3,2.463,1.479,2.463s1.43-.969,1.43-2.456v-.9h2.444v.663c0,2.15-.371,4.871-3.939,4.871C33.057,115.417,32.426,113.284,32.426,110.587Zm48.422,1.222V101.338h2.41v9.843c0,1.425.4,2.029,1.309,2.029.927,0,1.5-.571,1.5-2.72v-9.152h2.408v9.913c0,1.932,0,3.217.027,3.912h-2.3a10.974,10.974,0,0,1-.093-1.362,2.381,2.381,0,0,1-2.538,1.579C82.35,115.379,80.848,114.835,80.848,111.808ZM41.809,111v-5.636c0-2.855,1.577-4.24,3.915-4.24,2.428,0,3.814,1.527,3.814,4.326v5.511c0,2.977-1.449,4.42-3.9,4.42C43.137,115.379,41.809,113.923,41.809,111Zm2.417-5.667v5.75c0,1.279.408,2.155,1.463,2.155.984,0,1.433-.7,1.433-2.192v-5.731c0-1.188-.354-2.051-1.444-2.051C44.667,103.263,44.226,103.991,44.226,105.332Zm-25.162,5.455v-5.519c0-2.419.938-4.145,3.146-4.145a2.338,2.338,0,0,1,2.173,1V96.409h2.41v15.034c0,1.912,0,2.958.027,3.719h-2.3c-.046-.312-.091-1.064-.091-1.334A2.413,2.413,0,0,1,22,115.379C19.585,115.379,19.064,113.455,19.064,110.787Zm2.415-5.371v5.527c0,1.478.359,2.26,1.377,2.26,1.259,0,1.527-1.162,1.527-2.879v-4.375c0-1.506-.143-2.652-1.483-2.652C21.865,103.3,21.479,104.115,21.479,105.416Zm84.737,7.112v-9.069H104.7v-2.121h1.517v-3.35h2.4v3.35h1.823v2.121h-1.823V112.1c0,.676.106,1.266.954,1.266a3.5,3.5,0,0,0,.8-.08v1.832a4.245,4.245,0,0,1-1.6.249C107.2,115.363,106.216,114.806,106.216,112.528ZM101,115.163V101.338h2.41v13.825Zm-4.821,0V105.121c0-1.285-.437-1.823-1.3-1.823-1.052,0-1.58.544-1.58,2.728v9.137h-2.41v-9.582c0-2.8,0-3.591-.026-4.243h2.3a10.15,10.15,0,0,1,.091,1.309,2.549,2.549,0,0,1,2.542-1.524c1.61,0,2.792.955,2.792,3.538v10.5Zm-20.14,0v-10.2c0-1.012-.238-1.664-1.138-1.664-1.1,0-1.359.918-1.359,2.336v9.529H71.11V105.048c0-1.355-.377-1.751-1.153-1.751-1.1,0-1.344.936-1.344,2.359v9.506H66.2v-9.827c0-2.651,0-3.356-.026-4h2.3a9.229,9.229,0,0,1,.091,1.25,2.5,2.5,0,0,1,2.4-1.465,2.055,2.055,0,0,1,2.188,1.536,2.785,2.785,0,0,1,2.613-1.536c1.438,0,2.675.694,2.675,3.381v10.659Zm-14.654,0v-10.2c0-1.012-.238-1.664-1.138-1.664-1.1,0-1.359.918-1.359,2.336v9.529H56.457V105.048c0-1.355-.377-1.751-1.154-1.751-1.1,0-1.344.936-1.344,2.359v9.506h-2.41v-9.827c0-2.651,0-3.356-.027-4h2.3a9.221,9.221,0,0,1,.091,1.25,2.5,2.5,0,0,1,2.4-1.465,2.055,2.055,0,0,1,2.188,1.536,2.785,2.785,0,0,1,2.613-1.536c1.438,0,2.675.694,2.675,3.381v10.659Zm-46.756,0V105.121c0-1.285-.44-1.823-1.3-1.823-1.053,0-1.581.544-1.581,2.728v9.137H9.337v-9.582c0-2.8,0-3.591-.027-4.243h2.3a10.148,10.148,0,0,1,.091,1.309,2.548,2.548,0,0,1,2.54-1.524c1.612,0,2.794.955,2.794,3.538v10.5ZM0,115.163v-.3c.018-3.085,1.3-5.22,3.207-7.963,1.437-2.051,1.894-2.762,1.894-4.707,0-1.9-.25-2.7-1.359-2.7-1.016,0-1.4.777-1.4,2.219v.868H.107v-.942c0-1.972.623-4.172,3.745-4.172,2.9,0,3.675,1.91,3.675,4.586,0,2.766-.838,3.9-2.268,5.866-1.395,1.946-2.438,3.719-2.573,5.163h5.2l-.332,2.083Zm101.014-15.87V96.409h2.41v2.883ZM42.707,84.977l-29.087-16.8a.3.3,0,0,1-.151-.261V34.334a.3.3,0,0,1,.151-.263L42.1,17.627a.3.3,0,0,1,.3,0,.3.3,0,0,1,.151.261V51.126a.306.306,0,0,0,.15.261L71.493,68.008a.3.3,0,0,1,0,.523L43.011,84.977a.3.3,0,0,1-.3,0ZM73.152,67.961a.3.3,0,0,1-.3-.3V33.984a.3.3,0,0,0-.152-.261L43.54,16.886a.3.3,0,0,1-.107-.419,33.979,33.979,0,0,1,63.1,17.516A34.141,34.141,0,0,1,73.158,67.961Z" transform="translate(900 3532.001)" fill="#fff"/>
  </g>
</svg>
