<svg xmlns="http://www.w3.org/2000/svg" xmlns:xlink="http://www.w3.org/1999/xlink" width="67.893" height="67.894" viewBox="0 0 67.893 67.894">
  <defs>
    <linearGradient id="linear-gradient" x2="1" y2="1.029" gradientUnits="objectBoundingBox">
      <stop offset="0" stop-color="#98caf5"/>
      <stop offset="1" stop-color="#fab6b0"/>
    </linearGradient>
  </defs>
  <path id="icon" d="M-908.381,14590.563c0-.05.006-.1.007-.146a27.932,27.932,0,0,1-8.619-3.6c-.05.053-.094.109-.147.162a6.306,6.306,0,0,1-4.475,1.851,6.305,6.305,0,0,1-4.475-1.851,6.337,6.337,0,0,1,0-8.951c.051-.052.107-.1.159-.145a28.006,28.006,0,0,1-3.578-8.621c-.055,0-.107.008-.162.008a6.336,6.336,0,0,1-6.329-6.329,6.336,6.336,0,0,1,6.329-6.329c.055,0,.107.007.161.009a28.023,28.023,0,0,1,3.578-8.622c-.052-.049-.108-.093-.159-.145a6.337,6.337,0,0,1,0-8.951,6.338,6.338,0,0,1,8.951,0c.053.053.1.108.147.163a27.913,27.913,0,0,1,8.619-3.6c0-.049-.007-.1-.007-.146a6.337,6.337,0,0,1,6.329-6.329,6.337,6.337,0,0,1,6.329,6.329c0,.05-.006.1-.009.146a27.87,27.87,0,0,1,8.619,3.6c.051-.055.095-.11.147-.163a6.339,6.339,0,0,1,8.951,0,6.336,6.336,0,0,1,0,8.951c-.051.053-.107.1-.16.145a28.048,28.048,0,0,1,3.578,8.622c.054,0,.107-.009.162-.009a6.337,6.337,0,0,1,6.329,6.329,6.336,6.336,0,0,1-6.329,6.329c-.053,0-.1-.006-.158-.008a27.949,27.949,0,0,1-3.583,8.649c.041.04.085.075.126.116a6.336,6.336,0,0,1,0,8.951,6.284,6.284,0,0,1-4.474,1.854,6.29,6.29,0,0,1-4.475-1.854c-.044-.044-.08-.092-.123-.137a27.9,27.9,0,0,1-8.61,3.559c0,.054.008.105.008.158a6.337,6.337,0,0,1-6.329,6.329A6.337,6.337,0,0,1-908.381,14590.563Zm5.818-5.152c-.059,0-.116.017-.174.022-.107.015-.214.029-.32.051-.073.014-.143.033-.215.051-.087.02-.175.042-.261.068s-.16.052-.239.08-.143.05-.214.077c-.09.037-.177.077-.264.118-.054.025-.108.051-.161.077-.1.053-.2.107-.293.165l-.1.062c-.111.072-.221.145-.327.225l-.029.021a5.179,5.179,0,0,0-2.015,3.6.62.62,0,0,1-.035.11c-.011.139-.021.279-.021.422a5.183,5.183,0,0,0,5.178,5.178,5.183,5.183,0,0,0,5.178-5.178c0-.145-.01-.288-.021-.432a.591.591,0,0,1-.036-.108,5.176,5.176,0,0,0-2.387-3.851l-.07-.043c-.1-.063-.211-.123-.32-.179l-.134-.064c-.1-.045-.191-.089-.289-.128-.062-.024-.125-.046-.188-.068-.086-.031-.173-.063-.261-.09s-.16-.041-.241-.062-.152-.04-.231-.056c-.1-.021-.2-.034-.308-.048-.062-.007-.122-.02-.184-.025-.167-.016-.337-.025-.509-.025A4.9,4.9,0,0,0-902.562,14585.411Zm-16.919-8.854c.038.015.077.027.116.041.115.044.228.092.341.143.069.03.138.062.206.1.095.047.189.1.281.147s.17.1.253.149.155.095.231.146c.1.069.2.144.3.219.057.044.115.085.172.131.153.128.3.261.447.4s.277.293.4.446c.048.059.09.118.135.177.074.1.147.192.215.292.053.078.1.158.151.237s.1.162.145.246.1.189.15.286c.032.066.062.133.092.2.051.115.1.23.145.348.013.036.024.071.037.107a6.343,6.343,0,0,1-.619,5.543,26.781,26.781,0,0,0,8.037,3.356,6.343,6.343,0,0,1,2.9-4.1c.071-.042.141-.088.214-.13s.16-.083.241-.124.189-.1.286-.138c.076-.035.153-.065.231-.1.106-.043.212-.082.321-.118.075-.026.151-.05.228-.072.116-.034.233-.063.352-.091.074-.017.146-.036.222-.049.13-.025.264-.045.4-.062.065-.008.128-.019.194-.025.2-.02.4-.03.607-.03a5.41,5.41,0,0,1,.606.033c.067.006.132.017.2.026.132.016.263.034.392.06.078.015.154.033.231.052.114.025.226.055.338.087.082.024.163.05.244.077.1.033.2.07.3.109s.17.068.254.106.168.078.25.12.186.091.277.143c.052.03.1.063.153.094a6.34,6.34,0,0,1,2.95,4.122,26.8,26.8,0,0,0,8.023-3.316,6.341,6.341,0,0,1-.79-5.091c0-.018.007-.036.012-.051.033-.12.073-.237.113-.354.024-.068.046-.138.072-.206.037-.1.078-.192.12-.288s.077-.172.119-.258.084-.166.129-.247.109-.19.167-.282c.044-.072.087-.143.135-.212.072-.106.15-.209.229-.313.042-.053.08-.108.124-.161.128-.154.262-.306.406-.45s.286-.271.437-.4c.069-.057.142-.108.214-.164s.16-.123.243-.181.193-.125.291-.185c.061-.036.12-.073.181-.108.116-.064.234-.126.353-.184.041-.02.083-.04.125-.059q.206-.1.417-.173a.335.335,0,0,1,.049-.018,6.344,6.344,0,0,1,2.168-.389,6.281,6.281,0,0,1,3.447,1.022,26.779,26.779,0,0,0,3.339-8.062,6.34,6.34,0,0,1-4.119-2.944c-.033-.055-.067-.105-.1-.159-.049-.09-.095-.182-.14-.272s-.084-.169-.123-.254-.07-.168-.1-.253-.077-.2-.11-.3c-.027-.081-.053-.162-.076-.242-.033-.113-.061-.226-.087-.34-.018-.077-.036-.153-.052-.231-.024-.128-.043-.261-.06-.391-.008-.067-.02-.132-.026-.2-.019-.2-.03-.4-.03-.607s.011-.405.029-.606c.006-.067.018-.133.026-.2.016-.131.035-.263.06-.391.015-.078.034-.154.052-.232.026-.112.054-.226.087-.336.023-.083.05-.164.077-.245.034-.1.071-.2.109-.3s.068-.171.105-.256.079-.167.12-.249.092-.187.143-.278c.029-.05.061-.1.092-.151a6.344,6.344,0,0,1,4.121-2.951,26.861,26.861,0,0,0-3.339-8.042,6.328,6.328,0,0,1-3.409,1,6.336,6.336,0,0,1-2.14-.379l-.1-.035c-.119-.045-.235-.095-.351-.146-.065-.029-.131-.06-.2-.091-.1-.048-.193-.1-.289-.15s-.164-.1-.245-.145-.16-.1-.238-.152c-.1-.067-.2-.141-.292-.214-.06-.045-.119-.087-.176-.135q-.231-.189-.447-.4c-.143-.144-.276-.293-.4-.446-.047-.057-.09-.116-.135-.176-.074-.1-.147-.192-.215-.292-.053-.078-.1-.156-.151-.236s-.1-.163-.145-.246-.1-.19-.149-.286c-.032-.066-.062-.133-.092-.2-.052-.115-.1-.23-.145-.347-.014-.036-.025-.071-.038-.108a6.344,6.344,0,0,1,.619-5.543,26.752,26.752,0,0,0-8.037-3.355,6.345,6.345,0,0,1-2.9,4.1c-.071.044-.141.089-.214.13s-.16.084-.241.125-.189.095-.286.139c-.076.033-.153.064-.231.095-.106.042-.213.082-.321.118-.076.025-.151.05-.228.073-.116.032-.233.062-.352.09-.073.018-.146.036-.221.051-.131.025-.265.044-.4.061-.065.008-.128.019-.194.025-.2.019-.4.03-.607.03s-.407-.012-.608-.028c-.065-.007-.128-.018-.194-.026-.134-.017-.268-.036-.4-.062-.074-.014-.147-.031-.221-.049-.118-.027-.236-.058-.352-.091-.077-.022-.152-.047-.229-.072-.109-.036-.215-.075-.321-.119-.078-.03-.155-.061-.231-.095-.1-.043-.191-.09-.286-.138s-.163-.081-.241-.125-.142-.087-.214-.13a6.342,6.342,0,0,1-2.9-4.1,26.773,26.773,0,0,0-8.036,3.356,6.344,6.344,0,0,1,.619,5.543c-.013.037-.024.073-.038.108-.044.116-.093.232-.145.347-.03.067-.06.133-.092.2-.048.1-.1.191-.15.286s-.1.164-.145.245-.1.16-.151.238c-.068.1-.141.2-.215.291-.045.059-.088.119-.135.177-.126.153-.26.3-.4.446s-.294.277-.447.4c-.057.046-.117.089-.175.134-.1.073-.193.147-.293.216-.077.053-.157.1-.236.15s-.164.1-.248.146-.19.1-.286.149c-.067.032-.134.063-.2.093-.113.052-.228.1-.344.145-.038.014-.076.025-.114.038a6.318,6.318,0,0,1-2.132.376,6.318,6.318,0,0,1-3.409-1,26.9,26.9,0,0,0-3.339,8.041,6.342,6.342,0,0,1,4.12,2.952c.031.051.063.1.092.151.051.091.1.184.142.277s.083.164.12.25.072.168.105.254.076.2.11.3c.027.081.053.163.077.244.032.111.06.224.087.337.018.077.037.154.052.232.025.128.043.259.06.391.009.065.021.132.027.2.019.2.03.4.03.605s-.011.407-.028.608c-.006.066-.018.133-.026.2-.017.132-.035.262-.06.39-.015.079-.034.156-.052.233-.026.112-.055.225-.087.337-.024.081-.05.162-.077.243-.034.1-.07.2-.109.3s-.068.171-.106.255-.078.167-.12.249-.092.188-.143.277c-.029.052-.061.1-.092.152a6.34,6.34,0,0,1-4.121,2.95,26.854,26.854,0,0,0,3.339,8.043,6.293,6.293,0,0,1,3.4-.991A6.381,6.381,0,0,1-919.482,14576.557Zm34.452,1.42-.038.023c-.122.068-.244.142-.362.222-.045.031-.086.065-.13.1-.086.062-.173.123-.256.192q-.191.157-.369.333c-.121.122-.235.249-.341.378-.041.049-.076.1-.115.152-.061.082-.123.162-.179.245s-.089.144-.133.216-.08.132-.117.2c-.048.089-.09.179-.132.269-.024.051-.049.1-.072.155-.046.107-.086.214-.125.324-.012.034-.025.068-.036.1-.042.129-.079.258-.11.39,0,.012-.006.022-.009.035a5.177,5.177,0,0,0,1.013,4.417.667.667,0,0,1,.053.106c.1.115.195.228.3.335a5.144,5.144,0,0,0,3.662,1.518,5.141,5.141,0,0,0,3.661-1.518,5.186,5.186,0,0,0,0-7.324c-.1-.1-.213-.2-.323-.293a.528.528,0,0,1-.109-.057,5.186,5.186,0,0,0-3.259-1.152A5.142,5.142,0,0,0-885.029,14577.977Zm-39.783.493a.46.46,0,0,1-.111.057c-.121.1-.238.205-.352.319a5.184,5.184,0,0,0,0,7.323,5.182,5.182,0,0,0,7.323,0c.114-.114.22-.233.321-.355a.571.571,0,0,1,.054-.11,5.179,5.179,0,0,0,.865-4.846l-.018-.051c-.042-.124-.09-.247-.142-.369-.017-.037-.035-.073-.052-.11-.047-.1-.1-.2-.15-.3-.03-.056-.065-.111-.1-.166-.048-.081-.1-.162-.149-.241s-.11-.152-.167-.228c-.041-.056-.081-.113-.126-.167-.106-.129-.219-.255-.34-.375a4.657,4.657,0,0,0-.375-.339c-.056-.048-.115-.088-.173-.131-.073-.056-.144-.111-.22-.162s-.163-.1-.245-.152c-.054-.031-.107-.064-.162-.1-.1-.054-.2-.1-.308-.152-.037-.016-.073-.033-.109-.05-.122-.053-.245-.1-.37-.143l-.049-.019a5.2,5.2,0,0,0-1.621-.26A5.185,5.185,0,0,0-924.812,14578.47Zm-10.035-15.524a5.183,5.183,0,0,0,5.178,5.179c.147,0,.291-.01.435-.022a.6.6,0,0,1,.108-.034,5.176,5.176,0,0,0,3.847-2.389c.013-.023.027-.044.04-.067.065-.1.125-.213.181-.322.021-.043.042-.087.063-.13.046-.1.09-.191.13-.292.024-.061.046-.123.068-.187.031-.086.063-.173.089-.261s.042-.159.062-.24.041-.155.056-.233c.019-.1.033-.2.047-.3.009-.062.021-.124.027-.187.016-.167.026-.338.026-.509s-.01-.341-.025-.508c-.006-.063-.018-.125-.027-.187-.014-.1-.027-.205-.047-.306-.016-.078-.037-.155-.056-.232s-.038-.161-.061-.239-.059-.176-.089-.263c-.022-.062-.044-.126-.068-.186-.04-.1-.084-.2-.13-.292-.02-.043-.04-.087-.062-.129-.057-.111-.118-.219-.182-.324l-.04-.066a5.177,5.177,0,0,0-3.847-2.389.842.842,0,0,1-.108-.034c-.144-.013-.288-.022-.435-.022A5.184,5.184,0,0,0-934.847,14562.945Zm59.978-5.157a.614.614,0,0,1-.109.035,5.179,5.179,0,0,0-3.846,2.389c-.013.023-.027.045-.04.066-.064.105-.124.214-.181.323-.022.043-.042.087-.063.13-.046.1-.09.192-.13.29-.024.063-.045.126-.068.187-.031.088-.062.175-.089.264s-.042.159-.062.239-.04.155-.056.232c-.019.1-.033.2-.047.306-.008.063-.02.124-.027.188-.016.168-.025.336-.025.508a4.764,4.764,0,0,0,.027.509c.005.063.017.122.025.184.014.1.027.208.047.311.016.077.036.15.054.227s.039.165.063.246.057.17.087.255c.023.064.046.131.072.194.039.1.081.189.126.283.022.046.043.094.067.139.055.107.114.212.176.314l.046.075c.075.12.155.238.24.352a.012.012,0,0,1,0,0,5.189,5.189,0,0,0,3.6,2.029.452.452,0,0,1,.11.035c.142.012.286.021.432.021a5.183,5.183,0,0,0,5.178-5.179,5.184,5.184,0,0,0-5.178-5.178C-874.581,14557.767-874.726,14557.776-874.869,14557.788Zm-11.282-18.066c-.114.114-.22.234-.321.355a.545.545,0,0,1-.054.11,5.18,5.18,0,0,0-.865,4.846l.018.049c.043.126.09.249.142.37.016.038.035.074.052.112.047.1.1.2.15.3.03.056.065.11.1.167.048.08.1.161.148.24s.11.152.167.227c.041.056.082.114.126.168.106.13.219.254.34.375s.245.232.374.339c.059.048.121.091.182.136s.139.107.211.155.169.106.255.157c.051.03.1.062.152.09.1.056.211.108.317.157.032.016.065.031.1.045.125.055.253.1.382.147a.279.279,0,0,0,.037.013,5.179,5.179,0,0,0,4.852-.864.55.55,0,0,1,.109-.054c.122-.1.24-.206.354-.321a5.183,5.183,0,0,0,0-7.322,5.159,5.159,0,0,0-3.662-1.516A5.167,5.167,0,0,0-886.151,14539.722Zm-39.125,0a5.184,5.184,0,0,0,0,7.322c.114.113.233.219.354.318a.613.613,0,0,1,.11.057,5.181,5.181,0,0,0,4.854.863.206.206,0,0,0,.031-.011c.131-.044.259-.094.387-.149.031-.013.062-.027.093-.042.109-.05.216-.1.321-.159.051-.027.1-.059.149-.088.087-.051.173-.1.258-.158s.141-.1.211-.154.123-.09.182-.138c.129-.106.254-.219.375-.339a5.025,5.025,0,0,0,.339-.374c.045-.055.084-.113.126-.169.057-.074.114-.149.166-.227s.1-.16.148-.24c.032-.057.067-.11.1-.166.054-.1.1-.2.15-.3.018-.038.036-.074.052-.111.052-.122.1-.245.143-.371.006-.016.012-.033.017-.049a5.183,5.183,0,0,0-.865-4.846.517.517,0,0,1-.055-.11c-.1-.121-.207-.242-.321-.354a5.161,5.161,0,0,0-3.662-1.516A5.16,5.16,0,0,0-925.276,14539.723Zm18.046-4.395c0,.144.01.283.023.424a.563.563,0,0,1,.035.109,5.175,5.175,0,0,0,2.015,3.6l.029.022c.106.079.215.153.327.225q.051.032.1.062c.1.058.192.111.292.163.053.027.108.054.162.079.086.04.173.08.262.115.071.029.142.054.214.079s.157.057.238.081.173.046.261.068c.071.017.142.036.214.051.105.02.213.034.32.049.058.007.116.019.174.024.168.017.338.025.51.025a4.956,4.956,0,0,0,.512-.026c.058-.006.116-.017.174-.025.107-.014.215-.027.32-.048.072-.014.142-.034.214-.051.087-.021.175-.043.261-.068s.16-.053.238-.081.143-.05.214-.079c.089-.035.176-.075.263-.116.054-.025.109-.05.162-.077.1-.052.2-.105.292-.163l.1-.062c.112-.071.221-.146.327-.225l.029-.022a5.174,5.174,0,0,0,2.015-3.6.6.6,0,0,1,.035-.109c.011-.14.021-.279.021-.423a5.185,5.185,0,0,0-5.178-5.179A5.185,5.185,0,0,0-907.23,14535.328Zm1.725,36.247a2.881,2.881,0,0,1-2.877-2.877v-2.876h-8.63a.576.576,0,0,1-.531-.355.574.574,0,0,1,.125-.627l4.434-4.436v-7.815a2.881,2.881,0,0,1,2.877-2.878h9.206a2.881,2.881,0,0,1,2.877,2.878v4.027h6.329a2.88,2.88,0,0,1,2.877,2.877v6.666l4.435,4.435a.575.575,0,0,1,.125.627.575.575,0,0,1-.532.354Zm-1.726-12.082v9.205a1.728,1.728,0,0,0,1.726,1.727h19.324l-3.621-3.621a.573.573,0,0,1-.168-.406v-6.9a1.728,1.728,0,0,0-1.726-1.727H-905.5A1.728,1.728,0,0,0-907.231,14559.493Zm-4.6-6.9v8.055a.581.581,0,0,1-.168.408l-3.62,3.62h7.241v-5.179a2.88,2.88,0,0,1,2.877-2.877h6.329v-4.027a1.729,1.729,0,0,0-1.726-1.727h-9.206A1.729,1.729,0,0,0-911.834,14552.589Zm37.4,4.027h0Z" transform="translate(935.998 -14528.999)" fill="url(#linear-gradient)"/>
</svg>
