<svg xmlns="http://www.w3.org/2000/svg" width="20.851" height="14" viewBox="0 0 20.851 14">
  <path id="icon" d="M23.538,19.785H7.313A2.315,2.315,0,0,0,5,22.1v9.374a2.315,2.315,0,0,0,2.313,2.313H23.538a2.315,2.315,0,0,0,2.313-2.313V22.1A2.315,2.315,0,0,0,23.538,19.785ZM7.313,20.943H23.538c.025,0,.048.006.072.007l-5.628,4.885c-1.764,1.532-3.355,1.53-5.151,0L7.237,20.951C7.263,20.949,7.287,20.943,7.313,20.943ZM24.692,31.472a1.156,1.156,0,0,1-1.154,1.155H7.313a1.156,1.156,0,0,1-1.154-1.155V22.1a1.146,1.146,0,0,1,.1-.465l5.817,5.081a5.187,5.187,0,0,0,3.346,1.424,5.084,5.084,0,0,0,3.32-1.428l5.851-5.079a1.146,1.146,0,0,1,.1.466Z" transform="translate(-5 -19.785)" fill="#fff"/>
</svg>